<?xml version="1.0" encoding="utf-8"?>
<!-- Generator: Adobe Illustrator 19.0.1, SVG Export Plug-In . SVG Version: 6.00 Build 0)  -->
<svg version="1.1" id="레이어_1" xmlns="http://www.w3.org/2000/svg" xmlns:xlink="http://www.w3.org/1999/xlink" x="0px"
	 y="0px" viewBox="0 0 512 512" style="enable-background:new 0 0 512 512;" xml:space="preserve">
<style type="text/css">
	.st0{fill:#AED632;}
	.st1{fill:#56524F;}
	.st2{fill:#FFFFFF;}
	.st3{fill:none;stroke:#E27830;stroke-width:5;stroke-miterlimit:10;}
	.st4{font-family:'LucidaHandwriting-Italic';}
	.st5{font-size:72px;}
</style>
<g>
	<path class="st0" d="M351.6,177.3c-2.1-90-43.9-141.1-95.4-141.1S163,87.2,160.9,177.3H67v65.3v197.7v19.1c0,8.6,6.6,16.6,14,16.6
		h350.5c7.3,0,13.5-7.9,13.5-16.6v-19.1V242.5v-65.3H351.6z M256.3,62.5c43.1,0,66.1,38.3,68.3,114.8H188.1
		C190,100.7,213.1,62.5,256.3,62.5z"/>
	<circle class="st1" cx="256.2" cy="293.8" r="69.8"/>
	<circle class="st2" cx="257.7" cy="295.3" r="13.5"/>
	<path class="st3" d="M336.3,225.3v83.1c0,3.6-2.1,6.9-5.4,8.3l-32.1,13.7"/>
	<text transform="matrix(1 0 0 1 86.6437 443.1737)" class="st2 st4 st5">Vinylico</text>
</g>
</svg>
